<svg viewBox="0 0 1000 1000" xmlns="http://www.w3.org/2000/svg"><path d="M714 750q0-15-10-25t-25-11q-15-1-25 11t-11 25q-1 13 11 25t25 11q13-1 25-11t10-25zm143 0q0-15-10-25t-26-11q-16-1-25 11t-10 25q-1 13 10 25t25 11q14-1 26-11t10-25zm72-125v179q0 22-16 37t-38 16H54q-23 0-38-16T0 804V625q0-22 16-38t38-16h259l75 76q33 32 76 32t76-32l76-76h259q22 0 38 16t16 38zM747 307q10 23-8 39L489 596q-10 11-25 11t-25-11L189 346q-17-16-8-39 10-21 33-21h143V36q0-15 11-25t25-11h143q14 0 25 11t10 25v250h143q24 0 33 21z"/></svg>